<svg width="72px" height="72px" viewBox="-2.4 -2.4 28.80 28.80" fill="none" xmlns="http://www.w3.org/2000/svg"><g id="SVGRepo_bgCarrier" stroke-width="0"><rect x="-2.4" y="-2.4" width="28.80" height="28.80" rx="14.4" fill="#7eec91" strokewidth="0"></rect></g><g id="SVGRepo_tracerCarrier" stroke-linecap="round" stroke-linejoin="round"></g><g id="SVGRepo_iconCarrier"> <path d="M19 19L17.5 17.5" stroke="#ffffff" stroke-width="1.5" stroke-linecap="round"></path> <path d="M19 5L17.5 6.5" stroke="#ffffff" stroke-width="1.5" stroke-linecap="round"></path> <path d="M5 19L6.5 17.5" stroke="#ffffff" stroke-width="1.5" stroke-linecap="round"></path> <path d="M5 5L6.5 6.5" stroke="#ffffff" stroke-width="1.5" stroke-linecap="round"></path> <path d="M2 12H4" stroke="#ffffff" stroke-width="1.5" stroke-linecap="round"></path> <path d="M19.9998 12L21.9998 12" stroke="#ffffff" stroke-width="1.5" stroke-linecap="round"></path> <path d="M12 4.00021L12 2.00021" stroke="#ffffff" stroke-width="1.5" stroke-linecap="round"></path> <path d="M13.7781 14.364C14.9497 13.1924 14.9497 11.2929 13.7781 10.1214C12.6065 8.94978 10.707 8.94978 9.53545 10.1214C9.0898 10.567 8.77857 11.4921 8.56396 12.4675C8.24305 13.926 8.08259 14.6553 8.66339 15.2361C9.24419 15.8169 9.97346 15.6564 11.432 15.3355C12.4073 15.1209 13.3324 14.8096 13.7781 14.364Z" stroke="#ffffff" stroke-width="1.5"></path> <path d="M9 21.5422C4.94289 20.2679 2 16.4776 2 12C2 6.47715 6.47715 2 12 2C17.5228 2 22 6.47715 22 12C22 16.4776 19.0571 20.2679 15 21.5422" stroke="#ffffff" stroke-width="1.5" stroke-linecap="round"></path> </g></svg>